<svg id="Layer_1" data-name="Layer 1" xmlns="http://www.w3.org/2000/svg" xmlns:xlink="http://www.w3.org/1999/xlink" viewBox="0 0 64 64">
  <defs>
    <linearGradient id="linear-gradient" x1="0.7" y1="-384.08" x2="30.44" y2="-384.08" gradientTransform="translate(0 420.73)" gradientUnits="userSpaceOnUse">
      <stop offset="0.26" stop-color="#f97a12"/>
      <stop offset="0.46" stop-color="#b07b58"/>
      <stop offset="0.72" stop-color="#577bae"/>
      <stop offset="0.91" stop-color="#1e7ce5"/>
      <stop offset="1" stop-color="#087cfa"/>
    </linearGradient>
    <linearGradient id="linear-gradient-2" x1="23.54" y1="-397.97" x2="72.6" y2="-370.83" gradientTransform="translate(0 420.73)" gradientUnits="userSpaceOnUse">
      <stop offset="0" stop-color="#f97a12"/>
      <stop offset="0.07" stop-color="#cb7a3e"/>
      <stop offset="0.15" stop-color="#9e7b6a"/>
      <stop offset="0.24" stop-color="#757b91"/>
      <stop offset="0.33" stop-color="#537bb1"/>
      <stop offset="0.43" stop-color="#387ccc"/>
      <stop offset="0.54" stop-color="#237ce0"/>
      <stop offset="0.66" stop-color="#147cef"/>
      <stop offset="0.79" stop-color="#0b7cf7"/>
      <stop offset="1" stop-color="#087cfa"/>
    </linearGradient>
    <linearGradient id="linear-gradient-3" x1="57.8" y1="-381.51" x2="44.15" y2="-422.32" gradientTransform="translate(0 420.73)" gradientUnits="userSpaceOnUse">
      <stop offset="0" stop-color="#fe315d"/>
      <stop offset="0.08" stop-color="#cb417e"/>
      <stop offset="0.16" stop-color="#9e4e9b"/>
      <stop offset="0.25" stop-color="#755bb4"/>
      <stop offset="0.34" stop-color="#5365ca"/>
      <stop offset="0.44" stop-color="#386ddb"/>
      <stop offset="0.54" stop-color="#2374e9"/>
      <stop offset="0.66" stop-color="#1478f3"/>
      <stop offset="0.79" stop-color="#0b7bf8"/>
      <stop offset="1" stop-color="#087cfa"/>
    </linearGradient>
    <linearGradient id="linear-gradient-4" x1="9.82" y1="-405.7" x2="50.78" y2="-337.94" gradientTransform="translate(0 420.73)" gradientUnits="userSpaceOnUse">
      <stop offset="0" stop-color="#fe315d"/>
      <stop offset="0.04" stop-color="#f63462"/>
      <stop offset="0.1" stop-color="#df3a71"/>
      <stop offset="0.17" stop-color="#c24383"/>
      <stop offset="0.29" stop-color="#ad4a91"/>
      <stop offset="0.55" stop-color="#755bb4"/>
      <stop offset="0.92" stop-color="#1d76ed"/>
      <stop offset="1" stop-color="#087cfa"/>
    </linearGradient>
  </defs>
  <title>IntelliJIDEA_icon</title>
  <polygon points="16.2 49.9 0.7 37.7 8.4 23.4 30.5 32 16.2 49.9" fill="url(#linear-gradient)"/>
  <polygon points="64 17.1 62.8 54.1 38.2 64 23.4 54.4 45 32 35.6 11.2 44.1 1 64 17.1" fill="url(#linear-gradient-2)"/>
  <polygon points="64 17.1 44.5 40.1 35.6 11.2 44.1 1 64 17.1" fill="url(#linear-gradient-3)"/>
  <polygon points="30.8 53.1 5.2 62.4 9.3 48 14.6 30.2 0 25.3 9.3 0 29.3 2.4 49.1 25 30.8 53.1" fill="url(#linear-gradient-4)"/>
  <g>
    <rect x="12" y="12" width="40" height="40"/>
    <g>
      <rect x="15.8" y="44.5" width="15" height="2.5" fill="#fff"/>
      <polygon points="26.5 20.2 26.5 17.2 18.3 17.2 18.3 20.2 20.6 20.2 20.6 30.7 18.3 30.7 18.3 33.8 26.5 33.8 26.5 30.7 24.2 30.7 24.2 20.2 26.5 20.2" fill="#fff"/>
      <path d="M34.5,34a6.71,6.71,0,0,1-3.3-.7A7.87,7.87,0,0,1,29,31.5l2.3-2.6a7.47,7.47,0,0,0,1.4,1.2,2.93,2.93,0,0,0,1.6.4,1.86,1.86,0,0,0,1.6-.7,2.93,2.93,0,0,0,.6-2.1V17h3.7V27.8a6.77,6.77,0,0,1-.4,2.6,5,5,0,0,1-1.4,2.2A7.15,7.15,0,0,1,34.5,34" fill="#fff"/>
    </g>
  </g>
</svg>
